<mxfile host="65bd71144e">
    <diagram id="szxNI8mckmdOxdy0TDeM" name="Seite-1">
        <mxGraphModel dx="502" dy="303" grid="1" gridSize="10" guides="1" tooltips="1" connect="1" arrows="1" fold="1" page="1" pageScale="1" pageWidth="1169" pageHeight="827" math="0" shadow="0">
            <root>
                <mxCell id="0"/>
                <mxCell id="1" parent="0"/>
                <mxCell id="6" value="&lt;span&gt;docker-swarm&lt;/span&gt;" style="rounded=0;whiteSpace=wrap;html=1;" parent="1" vertex="1">
                    <mxGeometry x="390" y="320" width="210" height="300" as="geometry"/>
                </mxCell>
                <mxCell id="4" value="User" style="ellipse;whiteSpace=wrap;html=1;" parent="1" vertex="1">
                    <mxGeometry x="140" y="350" width="120" height="80" as="geometry"/>
                </mxCell>
                <mxCell id="5" value="airflow (using docker.swarm actinia)" style="ellipse;whiteSpace=wrap;html=1;" parent="1" vertex="1">
                    <mxGeometry x="150" y="510" width="120" height="80" as="geometry"/>
                </mxCell>
                <mxCell id="8" value="actinia" style="rounded=0;whiteSpace=wrap;html=1;" parent="1" vertex="1">
                    <mxGeometry x="450" y="374" width="90" height="60" as="geometry"/>
                </mxCell>
                <mxCell id="11" value="redis" style="rounded=0;whiteSpace=wrap;html=1;" parent="1" vertex="1">
                    <mxGeometry x="450" y="510" width="90" height="60" as="geometry"/>
                </mxCell>
                <mxCell id="12" value="" style="endArrow=classic;html=1;" edge="1" parent="1" source="4" target="8">
                    <mxGeometry width="50" height="50" relative="1" as="geometry">
                        <mxPoint x="560" y="420" as="sourcePoint"/>
                        <mxPoint x="610" y="370" as="targetPoint"/>
                    </mxGeometry>
                </mxCell>
                <mxCell id="13" value="" style="endArrow=classic;html=1;" edge="1" parent="1" source="5" target="8">
                    <mxGeometry width="50" height="50" relative="1" as="geometry">
                        <mxPoint x="269.86974538767913" y="402.634268797058" as="sourcePoint"/>
                        <mxPoint x="460" y="411.86440677966107" as="targetPoint"/>
                    </mxGeometry>
                </mxCell>
                <mxCell id="14" value="" style="endArrow=classic;html=1;" edge="1" parent="1" source="8" target="11">
                    <mxGeometry width="50" height="50" relative="1" as="geometry">
                        <mxPoint x="267.7122090849007" y="535.7462937151756" as="sourcePoint"/>
                        <mxPoint x="460" y="437.0526315789473" as="targetPoint"/>
                    </mxGeometry>
                </mxCell>
                <mxCell id="15" value="airflow (starting up separate actinia)" style="ellipse;whiteSpace=wrap;html=1;" vertex="1" parent="1">
                    <mxGeometry x="620" y="670" width="120" height="80" as="geometry"/>
                </mxCell>
                <mxCell id="16" value="&lt;span&gt;VM&lt;/span&gt;" style="rounded=0;whiteSpace=wrap;html=1;" vertex="1" parent="1">
                    <mxGeometry x="760" y="320" width="210" height="300" as="geometry"/>
                </mxCell>
                <mxCell id="17" value="actinia" style="rounded=0;whiteSpace=wrap;html=1;" vertex="1" parent="1">
                    <mxGeometry x="820" y="374" width="90" height="60" as="geometry"/>
                </mxCell>
                <mxCell id="18" value="redis" style="rounded=0;whiteSpace=wrap;html=1;" vertex="1" parent="1">
                    <mxGeometry x="820" y="510" width="90" height="60" as="geometry"/>
                </mxCell>
                <mxCell id="19" value="" style="endArrow=classic;html=1;" edge="1" parent="1" source="17" target="18">
                    <mxGeometry width="50" height="50" relative="1" as="geometry">
                        <mxPoint x="637.7122090849007" y="535.7462937151756" as="sourcePoint"/>
                        <mxPoint x="830" y="437.0526315789473" as="targetPoint"/>
                    </mxGeometry>
                </mxCell>
                <mxCell id="20" value="" style="endArrow=classic;html=1;exitX=0.692;exitY=0.025;exitDx=0;exitDy=0;exitPerimeter=0;" edge="1" parent="1" source="15" target="16">
                    <mxGeometry width="50" height="50" relative="1" as="geometry">
                        <mxPoint x="710.0022090849006" y="698.6962937151757" as="sourcePoint"/>
                        <mxPoint x="902.29" y="600.0026315789473" as="targetPoint"/>
                    </mxGeometry>
                </mxCell>
            </root>
        </mxGraphModel>
    </diagram>
</mxfile>
